<svg xmlns="http://www.w3.org/2000/svg" xmlns:xlink="http://www.w3.org/1999/xlink" version="1.1" xml:space="preserve">
    <rect xmlns="http://www.w3.org/2000/svg" id="background-logo" x="-325" y="-260" rx="0" ry="0" width="300" height="320" style="stroke: none;stroke-width: 1;stroke-dasharray: none;stroke-linecap: butt;stroke-linejoin: miter;stroke-miterlimit: 10;fill: rgba(0, 0, 0, 0);fill-rule: nonzero;opacity: 1;" transform="translate(325 260)"/>
    
    <g id="logo-logo" transform="translate(150 140)" style="">
        <path d="m 582.238 910.703 c 0 -10.609 -8.597 -19.211 -19.207 -19.211 c -10.609 0 -19.211 8.602 -19.211 19.211 c 0 10.61 8.602 19.207 19.211 19.207 c 10.61 0 19.207 -8.597 19.207 -19.207" style="stroke: none;stroke-width: 1;stroke-dasharray: none;stroke-linecap: butt;stroke-linejoin: miter;stroke-miterlimit: 10;fill: rgb(255, 255, 255);fill-rule: nonzero;opacity: 1;" transform="translate(-34.9789 -55.4336) scale(0.2049 0.2049) matrix(1 0 0 -1 0 0) translate(-563.029, -910.701) " stroke-linecap="round"/>
        <path d="m 563.027 883.266 c -15.132 0 -27.433 12.304 -27.433 27.437 c 0 15.129 12.301 27.438 27.433 27.438 c 15.129 0 27.446 -12.309 27.446 -27.438 c 0 -15.133 -12.317 -27.437 -27.446 -27.437 z m 0 38.41 c -6.047 0 -10.968 -4.918 -10.968 -10.973 c 0 -6.055 4.921 -10.976 10.968 -10.976 c 6.059 0 10.981 4.921 10.981 10.976 c 0 6.055 -4.922 10.973 -10.981 10.973" style="stroke: none;stroke-width: 1;stroke-dasharray: none;stroke-linecap: butt;stroke-linejoin: miter;stroke-miterlimit: 10;fill: rgb(255, 255, 255);fill-rule: nonzero;opacity: 1;" transform="translate(-34.978 -55.4341) scale(0.2049 0.2049) matrix(1 0 0 -1 0 0) translate(-563.0335, -910.7035) " stroke-linecap="round"/>
        <path d="m 703.16 815.641 c 8.438 -9.469 10.41 -21.481 4.406 -26.832 c -6.003 -5.352 -17.711 -2.016 -26.148 7.453 c -8.438 9.468 -10.414 21.48 -4.41 26.832 c 6.004 5.351 17.715 2.015 26.152 -7.453" style="stroke: none;stroke-width: 1;stroke-dasharray: none;stroke-linecap: butt;stroke-linejoin: miter;stroke-miterlimit: 10;fill: rgb(255, 255, 255);fill-rule: nonzero;opacity: 1;" transform="translate(-8.4929 -33.9695) scale(0.2049 0.2049) matrix(1 0 0 -1 0 0) translate(-692.28767753526, -805.9511717932623) " stroke-linecap="round"/>
        <path d="m 700.281 779.547 c -7.859 0 -16.801 4.301 -23.875 12.234 c -11.082 12.434 -12.773 28.383 -3.875 36.324 c 4.621 4.129 11.367 5.305 18.485 3.282 c 6.144 -1.75 12.234 -5.754 17.156 -11.27 v -0.008 c 11.082 -12.421 12.773 -28.375 3.875 -36.316 c -3.219 -2.867 -7.313 -4.246 -11.766 -4.246 z m -15.961 39.375 c -1.218 0 -2.207 -0.281 -2.836 -0.848 c -2.386 -2.125 -1.64 -9.941 4.95 -17.347 c 6.589 -7.383 14.269 -9.024 16.66 -6.903 c 2.386 2.125 1.64 9.942 -4.949 17.34 v 0 c -3.204 3.59 -7.141 6.25 -10.817 7.293 c -1.09 0.316 -2.101 0.465 -3.008 0.465" style="stroke: none;stroke-width: 1;stroke-dasharray: none;stroke-linecap: butt;stroke-linejoin: miter;stroke-miterlimit: 10;fill: rgb(255, 255, 255);fill-rule: nonzero;opacity: 1;" transform="translate(-8.4926 -33.9694) scale(0.2049 0.2049) matrix(1 0 0 -1 0 0) translate(-692.289, -805.9507041468732) " stroke-linecap="round"/>
        <path d="m 1145.97 744.898 l -20.16 197.157 c 23.51 0 42.57 19.058 42.57 42.57 v 53.765 c 0 23.51 -19.06 42.57 -42.57 42.57 h -31.37 c -62.73 185.96 -250.924 199.4 -360.706 199.4 c -109.777 0 -297.972 -13.44 -360.707 -199.4 h -31.363 c -23.512 0 -42.566 -19.06 -42.566 -42.57 v -53.765 c 0 -23.512 19.054 -42.566 42.566 -42.566 L 321.5 744.898 c 0 0 -156.828 -82.894 -161.309 -280.05 c 0 0 459.286 0 573.543 -221.801 v 0 c 114.262 221.801 573.546 221.801 573.546 221.801 c -4.48 197.156 -161.31 280.05 -161.31 280.05 z M 733.734 545.504 v 0 c 0 0 -448.082 -31.367 -255.406 356.226 l -43.492 130.48 c -17.094 51.27 -1.832 107.8 38.746 143.51 c 32.527 28.62 76.832 39.95 119.035 30.14 c 50.317 -11.7 112.727 -37.75 141.117 -95.77 v 0 c 28.399 58.02 90.805 84.07 141.118 95.77 c 42.207 9.81 86.511 -1.52 119.039 -30.14 c 40.579 -35.71 55.839 -92.24 38.749 -143.51 L 989.145 901.727 C 1181.82 514.137 733.734 545.504 733.734 545.504" style="stroke: none;stroke-width: 1;stroke-dasharray: none;stroke-linecap: butt;stroke-linejoin: miter;stroke-miterlimit: 10;fill: rgb(255, 255, 255);fill-rule: nonzero;opacity: 1;" transform="translate(0.0001 -24.9029) scale(0.2049 0.2049) matrix(1 0 0 -1 0 0) translate(-733.7355000000001, -761.7035000000001) " stroke-linecap="round"/>
        <path d="m 885.363 910.574 c 0 -10.609 8.602 -19.211 19.211 -19.211 c 10.606 0 19.207 8.602 19.207 19.211 c 0 10.61 -8.601 19.207 -19.207 19.207 c -10.609 0 -19.211 -8.597 -19.211 -19.207" style="stroke: none;stroke-width: 1;stroke-dasharray: none;stroke-linecap: butt;stroke-linejoin: miter;stroke-miterlimit: 10;fill: rgb(255, 255, 255);fill-rule: nonzero;opacity: 1;" transform="translate(35.0058 -55.4071) scale(0.2049 0.2049) matrix(1 0 0 -1 0 0) translate(-904.5720000000001, -910.5719999999999) " stroke-linecap="round"/>
        <path d="m 904.566 883.137 c -15.128 0 -27.429 12.304 -27.429 27.437 c 0 15.129 12.301 27.438 27.429 27.438 c 15.129 0 27.446 -12.309 27.446 -27.438 c 0 -15.133 -12.317 -27.437 -27.446 -27.437 z m 0 38.41 c -6.046 0 -10.964 -4.918 -10.964 -10.973 c 0 -6.054 4.918 -10.972 10.964 -10.972 c 6.063 0 10.985 4.918 10.985 10.972 c 0 6.055 -4.922 10.973 -10.985 10.973" style="stroke: none;stroke-width: 1;stroke-dasharray: none;stroke-linecap: butt;stroke-linejoin: miter;stroke-miterlimit: 10;fill: rgb(255, 255, 255);fill-rule: nonzero;opacity: 1;" transform="translate(35.0063 -55.4076) scale(0.2049 0.2049) matrix(1 0 0 -1 0 0) translate(-904.5745000000001, -910.5745) " stroke-linecap="round"/>
        <path d="m 764.445 815.535 c -8.437 -9.469 -10.414 -21.48 -4.41 -26.832 c 6.004 -5.351 17.711 -2.015 26.153 7.453 c 8.437 9.469 10.414 21.481 4.41 26.832 c -6.004 5.352 -17.715 2.016 -26.153 -7.453" style="stroke: none;stroke-width: 1;stroke-dasharray: none;stroke-linecap: butt;stroke-linejoin: miter;stroke-miterlimit: 10;fill: rgb(255, 255, 255);fill-rule: nonzero;opacity: 1;" transform="translate(8.5204 -33.9479) scale(0.2049 0.2049) matrix(1 0 0 -1 0 0) translate(-775.3165000000001, -805.8458282067375) " stroke-linecap="round"/>
        <path d="m 767.324 779.441 c -4.449 0 -8.547 1.379 -11.761 4.247 c -4.61 4.109 -6.579 10.66 -5.368 17.98 c 1.035 6.309 4.317 12.816 9.243 18.34 v 0 c 4.906 5.519 11 9.523 17.156 11.273 c 7.113 2.035 13.863 0.84 18.484 -3.273 c 8.899 -7.949 7.203 -23.899 -3.875 -36.324 c -7.074 -7.938 -16.015 -12.243 -23.879 -12.243 z m 15.949 39.375 c -0.89 0 -1.914 -0.148 -3.003 -0.464 c -3.665 -1.043 -7.602 -3.704 -10.805 -7.286 v 0 c -3.203 -3.589 -5.383 -7.812 -6.012 -11.586 c -0.433 -2.632 -0.039 -4.785 1.051 -5.753 c 2.387 -2.149 10.066 -0.497 16.672 6.902 c 6.59 7.398 7.336 15.215 4.949 17.344 c -0.633 0.554 -1.629 0.843 -2.852 0.843" style="stroke: none;stroke-width: 1;stroke-dasharray: none;stroke-linecap: butt;stroke-linejoin: miter;stroke-miterlimit: 10;fill: rgb(255, 255, 255);fill-rule: nonzero;opacity: 1;" transform="translate(8.5193 -33.9481) scale(0.2049 0.2049) matrix(1 0 0 -1 0 0) translate(-775.3112119423187, -805.8467838155599) " stroke-linecap="round"/>
        <path d="m 1400.26 314.18 v -42.008 c 0 0 -511.358 43.687 -643.83 -198.2775 H 733.734 H 711.043 C 578.566 315.859 67.2148 272.172 67.2148 272.172 V 314.18 L 0 243.047 C 601.551 308.02 697.328 47.0117 697.328 47.0117 h 36.406 h 36.411 c 0 0 95.777 261.0083 697.325 196.0353 l -67.21 71.133" style="stroke: none;stroke-width: 1;stroke-dasharray: none;stroke-linecap: butt;stroke-linejoin: miter;stroke-miterlimit: 10;fill: rgb(255, 255, 255);fill-rule: nonzero;opacity: 1;" transform="translate(0 94.1705) scale(0.2049 0.2049) matrix(1 0 0 -1 0 0) translate(-733.735, -180.59584999999998) " stroke-linecap="round"/>
        <path d="m 62.7305 333.781 l 34.7265 26.887 c 0 0 96.34 -7.84 133.305 -26.887 c 0 0 -109.778 19.047 -168.0315 0" style="stroke: none;stroke-width: 1;stroke-dasharray: none;stroke-linecap: butt;stroke-linejoin: miter;stroke-miterlimit: 10;fill: rgb(255, 255, 255);fill-rule: nonzero;opacity: 1;" transform="translate(-120.2784 60.027) scale(0.2049 0.2049) matrix(1 0 0 -1 0 0) translate(-146.74625, -347.22450000000003) " stroke-linecap="round"/>
        <path d="m 716.652 635.117 c 0 -6.957 -9.781 -12.601 -21.843 -12.601 c -12.063 0 -21.844 5.644 -21.844 12.601 c 0 6.961 9.781 12.606 21.844 12.606 c 12.062 0 21.843 -5.645 21.843 -12.606" style="stroke: none;stroke-width: 1;stroke-dasharray: none;stroke-linecap: butt;stroke-linejoin: miter;stroke-miterlimit: 10;fill: rgb(255, 255, 255);fill-rule: nonzero;opacity: 1;" transform="translate(-7.9763 1.0352) scale(0.2049 0.2049) matrix(1 0 0 -1 0 0) translate(-694.8085000000001, -635.1195) " stroke-linecap="round"/>
        <path d="M 723.121 93.293 L 749.27 94.0195 L 751.844 0.726563 L 738.238 19.4297 L 725.691 0 l -2.57 93.293" style="stroke: none;stroke-width: 1;stroke-dasharray: none;stroke-linecap: butt;stroke-linejoin: miter;stroke-miterlimit: 10;fill: rgb(255, 255, 255);fill-rule: nonzero;opacity: 1;" transform="translate(0.7679 121.5433) scale(0.2049 0.2049) matrix(1 0 0 -1 0 0) translate(-737.4825000000001, -47.00975) " stroke-linecap="round"/>
    </g>
    <g id="text-logo" transform="translate(250 300)">
        <text x="-250.876" y="19.4767" xml:space="preserve" font-family="Freshman" font-size="62" font-style="normal" font-weight="normal" style="stroke: none;stroke-width: 1;stroke-dasharray: none;stroke-linecap: butt;stroke-linejoin: miter;stroke-miterlimit: 10;fill: rgb(255, 255, 255);fill-rule: nonzero;opacity: 1;white-space: pre;">JUST THAI</text>
    </g>
</svg>